<?xml version="1.0" encoding="UTF-8" standalone="no"?>
<!-- Created with Inkscape (http://www.inkscape.org/) -->

<svg
   id="svg2"
   sodipodi:version="0.32"
   inkscape:version="1.2.2 (b0a8486541, 2022-12-01)"
   width="60cm"
   height="60cm"
   version="1.0"
   sodipodi:docname="logo_plot.svg"
   inkscape:output_extension="org.inkscape.output.svg.inkscape"
   viewBox="0 0 2125.9842 2125.9842"
   xmlns:inkscape="http://www.inkscape.org/namespaces/inkscape"
   xmlns:sodipodi="http://sodipodi.sourceforge.net/DTD/sodipodi-0.dtd"
   xmlns="http://www.w3.org/2000/svg"
   xmlns:svg="http://www.w3.org/2000/svg"
   xmlns:rdf="http://www.w3.org/1999/02/22-rdf-syntax-ns#"
   xmlns:cc="http://creativecommons.org/ns#"
   xmlns:dc="http://purl.org/dc/elements/1.1/">
  <metadata
     id="metadata7">
    <rdf:RDF>
      <cc:Work
         rdf:about="">
        <dc:format>image/svg+xml</dc:format>
        <dc:type
           rdf:resource="http://purl.org/dc/dcmitype/StillImage" />
      </cc:Work>
    </rdf:RDF>
  </metadata>
  <defs
     id="defs5" />
  <sodipodi:namedview
     inkscape:window-height="1011"
     inkscape:window-width="1920"
     inkscape:pageshadow="2"
     inkscape:pageopacity="0.0"
     guidetolerance="10.0"
     gridtolerance="10.0"
     objecttolerance="10.0"
     borderopacity="1.0"
     bordercolor="#666666"
     pagecolor="#ffffff"
     id="base"
     width="930px"
     height="676.29px"
     inkscape:zoom="0.26060467"
     inkscape:cx="1385.24"
     inkscape:cy="1392.9144"
     inkscape:window-x="0"
     inkscape:window-y="0"
     inkscape:current-layer="svg2"
     inkscape:showpageshadow="0"
     inkscape:pagecheckerboard="0"
     inkscape:deskcolor="#d1d1d1"
     showgrid="false"
     inkscape:window-maximized="1"
     inkscape:document-units="cm" />
  <path
     id="rect593"
     style="fill:#000000;stroke-width:5.04166"
     d="M 0 0 L 0 2125.9844 L 2125.9844 2125.9844 L 2125.9844 0 L 0 0 z M 632.72642 469.53368 C 767.63732 468.86301 896.71543 475.68616 978.19333 488.62425 C 1002.6933 492.51466 1007.1951 495.95903 1018.9581 519.80711 C 1030.848 543.91225 1037.6617 571.30964 1039.4348 602.14048 C 1041.3639 635.68514 1040.5749 643.62237 1035.1666 645.07322 C 1028.2519 646.92828 1006.1276 646.44297 1002.2168 644.34995 C 996.56372 641.32449 992.50642 628.47273 989.21261 603.15306 C 982.22485 549.43699 972.73281 536.8087 932.13315 527.21556 C 886.78415 516.50021 817.81807 512.50007 680.58469 512.62388 C 547.21636 512.74422 444.20769 516.84763 340.85082 526.15904 C 315.30917 528.46008 308.00917 529.83723 300.08422 533.85313 C 279.54831 544.25955 264.2088 568.57207 254.80956 605.60667 C 247.60755 633.98386 246.15121 652.61407 244.01733 743.70481 C 240.94938 874.66821 245.93357 938.08495 264.62768 1005.9173 C 275.92475 1046.9094 285.31262 1060.8245 309.69542 1072.7179 C 336.8085 1085.9431 326.19128 1085.473 595.2429 1085.3906 C 828.43842 1085.3196 905.44356 1083.8581 935.70737 1078.9325 C 963.87067 1074.3488 980.01136 1045.1402 989.27853 981.99277 C 993.60138 952.53598 994.12042 950.75616 999.86386 945.62436 C 1011.5119 935.21667 1026.7781 936.46915 1033.2733 948.36545 C 1039.1097 959.05537 1037.8881 993.619 1030.4132 1029.3274 C 1020.7758 1075.3658 1011.9446 1106.5325 1006.8036 1112.6422 C 996.77013 1124.5664 967.18746 1131.6898 922.7197 1132.89 C 909.07483 1133.2583 753.22592 1133.1061 576.38853 1132.5512 L 254.86449 1131.5405 L 248.4027 1126.9317 C 240.27282 1121.1329 227.85715 1095.9157 222.33581 1073.985 C 212.80599 1036.1329 207.28649 994.69836 204.22302 938.03098 C 203.07227 916.74482 200.27199 870.74899 198.00109 835.81784 C 193.4929 766.47256 193.81746 723.06927 199.32861 658.18357 C 207.64529 560.26686 222.76241 501.54014 243.078 488.22874 C 248.66611 484.56725 307.25682 481.00163 497.41698 472.75267 C 542.13667 470.81277 587.75612 469.75723 632.72642 469.53368 z M 770.1782 533.14635 L 785.91611 533.14635 C 794.57142 533.14635 801.79381 533.36967 801.96714 533.64256 C 802.14057 533.91546 802.84807 556.02011 803.53818 582.76426 C 804.91165 635.9924 805.57264 639.30024 817.57688 652.97239 C 826.32876 662.94032 831.83766 665.45496 850.39121 667.94859 C 889.68761 673.23011 919.78765 674.0947 1062.9437 674.06065 C 1151.2894 674.03955 1224.2667 674.88594 1238.5913 676.09678 C 1305.7783 681.776 1359.5435 695.19732 1406.3525 717.973 C 1429.0494 729.01651 1431.5786 730.85169 1447.7655 748.04258 C 1478.2193 780.38544 1507.7081 823.6101 1524.5745 860.6268 L 1532.2613 877.49631 L 1531.5435 865.40219 C 1529.9407 838.4304 1490.2216 772.67823 1428.0505 694.07591 C 1416.4668 679.43058 1406.9897 666.75318 1406.9897 665.90513 C 1406.9897 663.05024 1415.7684 658.18357 1420.9185 658.18357 C 1429.9844 658.18357 1453.3636 673.96532 1463.9886 687.25706 C 1518.2012 755.07675 1552.0686 810.31347 1567.8552 856.65708 C 1571.3877 867.02726 1576.3837 877.72541 1578.9569 880.43149 L 1583.6352 885.35153 L 1589.6392 879.34934 L 1595.6414 873.34531 L 1590.5072 855.57309 C 1579.0409 815.88668 1566.5337 791.3471 1518.3178 713.93552 C 1481.5292 654.87027 1481.3002 654.21568 1497.3706 654.21568 C 1504.3271 654.21568 1508.5658 656.03491 1520.4473 664.11985 C 1528.4528 669.56728 1536.4199 675.14836 1538.1518 676.52342 C 1543.2253 680.55156 1582.9776 747.95852 1596.7675 775.91672 C 1603.7364 790.04548 1612.6394 811.98175 1616.5539 824.66489 C 1626.9305 858.28402 1626.9667 858.32301 1638.2611 848.40634 C 1645.4883 842.06067 1645.6086 841.71631 1644.4537 830.93625 C 1641.7601 805.79237 1627.3119 760.66634 1610.1782 723.88731 C 1605.4001 713.63058 1601.4898 704.04371 1601.4898 702.58299 C 1601.4898 701.12226 1604.0768 697.03114 1607.2375 693.49363 C 1612.7704 687.30135 1613.1944 687.17076 1618.6486 689.98899 C 1627.876 694.75677 1643.7024 712.05745 1650.4486 724.75156 C 1653.9063 731.25771 1661.8503 753.77372 1668.1018 774.78696 C 1674.3531 795.80023 1680.1807 812.99375 1681.0528 812.99375 C 1681.9251 812.99375 1685.5917 809.2853 1689.201 804.754 C 1705.8566 783.84383 1711.8962 780.93255 1720.2264 789.79978 C 1725.6135 795.53412 1725.7056 803.03374 1720.5725 817.95408 C 1715.2682 833.37105 1715.4744 837.64383 1721.6583 840.4614 C 1724.4387 841.72824 1728.0117 842.76303 1729.5977 842.76303 C 1733.4973 842.76303 1733.2245 847.92148 1728.6163 861.31528 C 1714.9846 900.93674 1685.5906 935.89367 1639.2004 967.65378 C 1595.1326 997.82387 1537.956 1016.6818 1483.7329 1018.9306 C 1456.8362 1020.046 1441.1883 1016.9246 1427.8289 1007.7777 C 1417.5642 1000.7497 1417.1958 994.584 1426.6607 988.20553 C 1437.0008 981.23737 1450.6666 977.98262 1479.1992 975.69211 C 1567.8082 968.57884 1634.8633 936.37947 1683.5375 877.56955 C 1691.1767 868.33972 1691.3498 867.88497 1685.841 871.49961 C 1625.3977 911.16006 1559.5403 940.11683 1509.6441 948.9697 C 1494.6749 951.6256 1483.5598 952.18133 1461.0186 951.40134 C 1430.0575 950.33 1411.573 946.61005 1390.1788 937.14841 C 1378.3478 931.9162 1376.8401 929.20674 1377.7075 914.74545 L 1378.211 906.34458 L 1215.465 905.34299 C 1125.9547 904.79255 1031.7674 904.34501 1006.1609 904.34873 C 946.94126 904.35673 889.34995 908.168 840.3552 915.31674 C 817.2297 918.69093 813.18018 921.70154 805.44797 941.28293 C 800.23857 954.47545 799.21663 980.02855 802.42673 1016.8487 C 804.42552 1039.775 801.99366 1053.2768 794.97617 1058.1921 C 792.41986 1059.9826 786.08064 1061.0833 778.33738 1061.0833 C 763.4718 1061.0833 763.4783 1061.0945 760.17881 1034.1888 C 755.3462 994.78329 758.32754 951.94771 767.90769 923.15915 C 771.74919 911.61539 773.39411 909.3808 783.22629 902.34006 C 803.95042 887.49973 838.57167 877.58373 886.97202 872.62754 C 898.83234 871.41304 948.35993 870.53692 1002.0849 870.5914 C 1053.9478 870.644 1146.8434 870.10486 1208.518 869.39206 C 1280.3201 868.56221 1340.5801 868.89741 1376.0522 870.32407 C 1406.5211 871.54952 1431.8358 872.16753 1432.3059 871.69736 C 1434.2813 869.72192 1411.0769 858.5726 1397.1991 854.82968 C 1369.8743 847.46005 1357.3498 846.67732 1237.2967 844.83396 C 1171.8014 843.82833 1065.5199 841.958 1001.1163 840.67746 C 823.20382 837.14002 806.97594 837.19398 791.72971 841.38242 C 764.79189 848.78273 741.23161 860.12085 721.27256 875.28806 C 701.10726 890.61198 677.85495 916.72327 622.54209 986.16025 L 562.85887 1061.0833 L 542.12217 1061.0833 C 524.6187 1061.0833 521.55916 1060.6247 522.51158 1058.1427 C 524.42394 1053.1591 597.24853 952.06797 613.44908 931.90793 C 646.80266 890.40242 695.53268 839.30328 713.96299 826.50693 C 727.67858 816.98411 751.92594 809.15553 775.61826 806.60154 C 803.83424 803.55991 1035.8135 803.66968 1215.465 806.81028 C 1367.8766 809.47466 1363.6977 809.12373 1407.182 822.89792 C 1420.6488 827.1637 1432.0445 830.27837 1432.5054 829.81748 C 1432.9662 829.3566 1430.9082 825.78596 1427.9315 821.88352 C 1420.9293 812.70302 1405.3728 802.49065 1389.1058 796.39524 C 1361.936 786.21437 1352.7258 785.58306 1197.6013 783.29038 C 1057.7196 781.22296 994.79679 779.73997 827.45359 774.55991 L 749.05881 772.13193 L 737.42063 766.32932 C 716.92196 756.1064 700.53729 738.08008 619.70579 636.81517 C 576.77796 583.03559 541.65526 538.55357 541.65526 537.96751 C 541.65526 535.96932 586.30122 539.61271 589.1345 541.84202 C 590.68706 543.06364 611.54156 570.26221 635.47666 602.28331 C 687.02472 671.24596 702.41706 689.91514 726.12852 712.23631 C 749.61005 734.34099 757.84913 739.78155 772.51462 742.86802 C 800.77513 748.81565 877.61495 750.20692 1049.4122 747.87778 C 1248.582 745.17755 1315.3413 746.61336 1346.455 754.26633 C 1371.3002 760.37743 1401.8098 770.97048 1420.8764 780.10801 C 1428.9237 783.96455 1435.8544 786.77311 1436.2793 786.34824 C 1438.1312 784.49624 1430.3599 773.42535 1421.1804 764.83884 C 1392.3873 737.90614 1349.5056 721.12746 1295.8447 715.79771 C 1274.3461 713.6624 1150.9914 712.67806 1070.581 713.99961 C 1045.4745 714.41223 995.46025 714.72809 959.43784 714.70274 C 900.60199 714.66144 891.45615 714.21032 869.49094 710.25694 C 840.39712 705.02047 807.86612 694.57885 788.72495 684.33286 C 777.24735 678.18908 774.10299 675.3831 770.473 668.0438 C 760.03062 646.93085 758.93456 589.44638 768.09812 543.56688 L 770.1782 533.14635 z M 1743.6474 882.45847 C 1753.886 882.45847 1753.8691 881.2773 1744.0612 911.17124 C 1721.9155 978.67055 1676.2188 1034.5367 1610.9326 1073.9245 C 1596.2522 1082.7814 1593.4718 1083.6308 1548.6236 1092.9785 C 1498.1594 1103.4968 1496.4103 1103.679 1481.4147 1099.9731 C 1468.4833 1096.7774 1460.7089 1092.5856 1451.3598 1083.7683 L 1443.7408 1076.5814 L 1448.3862 1072.8204 C 1455.5777 1066.9969 1471.1136 1063.0971 1499.2785 1060.0433 C 1513.4692 1058.5047 1529.0978 1055.9403 1534.01 1054.3451 C 1587.9932 1036.8148 1621.6561 1015.2387 1665.2911 970.20077 C 1686.6448 948.1606 1730.5967 893.64616 1733.8513 885.16477 C 1734.5112 883.44531 1738.0838 882.45847 1743.6474 882.45847 z M 1762.5714 942.06845 C 1766.5833 941.98525 1775.6964 952.42317 1777.3443 958.98923 C 1779.9999 969.57028 1764.7491 1020.5263 1750.1934 1049.707 C 1722.0787 1106.0709 1674.8846 1144.4297 1616.3763 1158.468 C 1600.0977 1162.3739 1575.1113 1163.2833 1565.2972 1160.3283 C 1562.3106 1159.429 1556.7296 1156.7537 1552.8936 1154.3829 C 1547.171 1150.8461 1545.9191 1148.8835 1545.9191 1143.446 L 1545.9191 1136.8194 L 1559.3151 1135.5084 C 1592.7815 1132.2321 1619.8042 1121.1791 1646.4202 1099.8834 C 1674.8145 1077.1649 1699.4074 1044.4193 1739.4268 976.0455 C 1752.3066 954.04028 1760.4319 942.11282 1762.5714 942.06845 z M 1734.4299 1098.5614 C 1735.3685 1098.181 1735.9019 1098.2692 1736.0687 1098.7939 C 1738.6954 1107.056 1771.8157 1168.8445 1779.2559 1179.3621 C 1795.3536 1202.1185 1816.7193 1218.3372 1837.7032 1223.7304 C 1842.5972 1224.9882 1849.9701 1227.3121 1854.0856 1228.894 C 1864.9189 1233.0579 1879.7922 1232.4458 1904.7656 1226.8084 C 1942.1263 1218.3747 1954.0204 1220.7715 1962.5829 1238.4594 C 1969.6832 1253.1269 1968.2595 1255.7153 1949.6649 1261.9537 C 1917.058 1272.8931 1874.0934 1273.3649 1831.0327 1263.2574 C 1817.7676 1260.1438 1812.919 1259.6973 1811.1859 1261.4282 C 1808.5825 1264.0282 1808.4425 1281.1342 1810.794 1309.1748 C 1812.1131 1324.9049 1811.6606 1331.7546 1808.0639 1350.5108 C 1797.1309 1407.5243 1775.7668 1449.2498 1740.7232 1482.0373 C 1726.9002 1494.9702 1721.8744 1498.3817 1712.7923 1500.9979 C 1706.7011 1502.7526 1696.6001 1506.7562 1690.3454 1509.895 L 1678.9746 1515.6024 L 1677.7038 1510.5395 C 1676.0624 1503.9994 1678.1665 1490.994 1682.0965 1483.3941 C 1686.8014 1474.2959 1700.0991 1460.6924 1716.6027 1448.095 C 1733.6116 1435.1119 1748.3713 1419.9646 1753.2989 1410.4357 C 1763.9087 1389.9184 1771.0958 1322.0566 1766.3946 1286.7846 C 1759.9907 1238.7387 1735.1271 1185.2511 1702.7069 1149.7778 C 1697.2509 1143.808 1692.7862 1138.0427 1692.7862 1136.9659 C 1692.7862 1135.8891 1702.3114 1126.1903 1713.9532 1115.4126 C 1725.1454 1105.0512 1731.6142 1099.7023 1734.4299 1098.5614 z M 1664.2272 1161.7657 L 1670.3723 1177.4157 C 1685.0082 1214.691 1690.3965 1240.9052 1692.149 1283.3734 C 1694.1513 1331.8909 1689.0327 1375.2023 1668.814 1480.8526 C 1651.2899 1572.4223 1651.5055 1570.3287 1656.7144 1598.8073 C 1665.7102 1647.9909 1678.0793 1676.4824 1701.2878 1701.4746 C 1706.8808 1707.4973 1707.0545 1708.2436 1705.6585 1720.3289 C 1704.859 1727.2499 1703.444 1734.9237 1702.5146 1737.3797 C 1699.8554 1744.4065 1691.5961 1742.9264 1676.4532 1732.7123 C 1637.6614 1706.5467 1617.2735 1664.242 1613.4869 1602.0629 C 1610.665 1555.7271 1615.2973 1520.8097 1635.227 1438.1817 C 1653.0259 1364.3875 1655.4045 1349.6194 1656.5386 1305.899 L 1657.5238 1267.89 L 1652.0159 1257.7679 C 1648.9863 1252.2014 1645.9796 1247.705 1645.3344 1247.7758 C 1643.3351 1247.9954 1619.0683 1276.7864 1604.3243 1296.4306 C 1572.1741 1339.2664 1553.9274 1381.519 1550.6048 1420.8251 L 1549.3194 1436.0339 L 1538.9447 1438.1872 C 1518.0454 1442.5259 1517.5457 1442.3829 1514.599 1431.2347 C 1510.6608 1416.3364 1512.5209 1379.1246 1518.0212 1362.7624 C 1525.4811 1340.5715 1542.2254 1309.4878 1566.1578 1273.4014 C 1592.7258 1233.3411 1610.0462 1201.7044 1616.4239 1181.5887 C 1621.644 1165.1243 1622.2705 1164.7432 1647.0373 1162.9852 L 1664.2272 1161.7657 z M 1601.4898 1489.7845 L 1601.4898 1508.6022 C 1601.4898 1530.844 1607.1853 1527.7605 1555.7153 1533.3892 C 1519.5219 1537.3472 1515.9939 1537.5048 1498.5369 1535.9527 L 1489.8577 1535.18 L 1490.9252 1527.2259 C 1492.5623 1515.0206 1500.4035 1504.8748 1512.9418 1498.7402 C 1522.6677 1493.9818 1527.1887 1493.2267 1555.2191 1491.6741 C 1572.4813 1490.718 1589.955 1489.9012 1594.0484 1489.8596 L 1601.4898 1489.7845 z " />
</svg>
