<?xml version="1.0" encoding="UTF-8" standalone="no"?>
<!-- Created with Inkscape (http://www.inkscape.org/) -->

<svg
   id="svg2"
   sodipodi:version="0.32"
   inkscape:version="1.2.2 (b0a8486541, 2022-12-01)"
   width="59cm"
   height="59cm"
   version="1.0"
   sodipodi:docname="logo.svg"
   inkscape:output_extension="org.inkscape.output.svg.inkscape"
   viewBox="0 0 2090.5511 2090.5511"
   xmlns:inkscape="http://www.inkscape.org/namespaces/inkscape"
   xmlns:sodipodi="http://sodipodi.sourceforge.net/DTD/sodipodi-0.dtd"
   xmlns="http://www.w3.org/2000/svg"
   xmlns:svg="http://www.w3.org/2000/svg"
   xmlns:rdf="http://www.w3.org/1999/02/22-rdf-syntax-ns#"
   xmlns:cc="http://creativecommons.org/ns#"
   xmlns:dc="http://purl.org/dc/elements/1.1/">
  <metadata
     id="metadata7">
    <rdf:RDF>
      <cc:Work
         rdf:about="">
        <dc:format>image/svg+xml</dc:format>
        <dc:type
           rdf:resource="http://purl.org/dc/dcmitype/StillImage" />
      </cc:Work>
    </rdf:RDF>
  </metadata>
  <defs
     id="defs5" />
  <sodipodi:namedview
     inkscape:window-height="1011"
     inkscape:window-width="1920"
     inkscape:pageshadow="2"
     inkscape:pageopacity="0.0"
     guidetolerance="10.0"
     gridtolerance="10.0"
     objecttolerance="10.0"
     borderopacity="1.0"
     bordercolor="#666666"
     pagecolor="#ffffff"
     id="base"
     width="930px"
     height="676.29px"
     inkscape:zoom="0.26060467"
     inkscape:cx="1385.24"
     inkscape:cy="1392.9144"
     inkscape:window-x="0"
     inkscape:window-y="0"
     inkscape:current-layer="svg2"
     inkscape:showpageshadow="0"
     inkscape:pagecheckerboard="0"
     inkscape:deskcolor="#d1d1d1"
     showgrid="false"
     inkscape:window-maximized="1"
     inkscape:document-units="cm" />
  <path
     style="fill:#000000;stroke-width:1.96851"
     d="m 1658.7374,1714.9963 c -38.7918,-26.1657 -59.1807,-68.47 -62.9673,-130.6491 -2.8219,-46.3359 1.8101,-81.2541 21.7398,-163.8822 17.7989,-73.7943 20.1782,-88.5629 21.3123,-132.2833 l 0.9859,-38.0087 -5.5084,-10.1208 c -3.0296,-5.5665 -6.0362,-10.0629 -6.6814,-9.9921 -1.9993,0.2196 -26.2665,29.0096 -41.0105,48.6538 -32.1502,42.8358 -50.3968,85.0881 -53.7194,124.3943 l -1.2856,15.2087 -10.3743,2.1537 c -20.8993,4.3387 -21.3988,4.196 -24.3456,-6.9522 -3.9382,-14.8983 -2.0782,-52.1108 3.4221,-68.473 7.4599,-22.1909 24.2032,-53.2734 48.1356,-89.3598 26.568,-40.0604 43.8886,-71.6973 50.2663,-91.813 5.2201,-16.4644 5.8478,-16.8458 30.6146,-18.6038 l 17.189,-1.2201 6.1454,15.6513 c 14.636,37.2753 20.0233,63.4882 21.7758,105.9564 2.0023,48.5176 -3.1154,91.8298 -23.3341,197.4802 -17.5242,91.5698 -17.3094,89.4764 -12.1005,117.9551 8.9958,49.1836 21.3655,77.6742 44.574,102.6664 5.593,6.0228 5.7661,6.7696 4.3701,18.8549 -0.7995,6.921 -2.2142,14.5933 -3.1436,17.0493 -2.6592,7.0268 -10.9173,5.5481 -26.0602,-4.666 z m -177.9166,-196.7602 -8.6794,-0.7717 1.0669,-7.9547 c 1.6371,-12.2053 9.4794,-22.3513 22.0178,-28.4859 9.7259,-4.7584 14.2459,-5.5139 42.2763,-7.0665 17.2623,-0.9561 34.7354,-1.7724 38.8288,-1.814 l 7.4427,-0.075 v 18.817 c 0,22.2418 5.6942,19.1584 -45.7759,24.7871 -36.1934,3.958 -39.7202,4.1162 -57.1772,2.5641 z m 179.1656,-25.414 c -1.6414,-6.5401 0.4633,-19.5439 4.3933,-27.1438 4.7049,-9.0982 18.0037,-22.7025 34.5073,-35.2999 17.0089,-12.9832 31.7686,-28.1301 36.6962,-37.659 10.6098,-20.5174 17.7968,-88.3788 13.0956,-123.6508 -6.4039,-48.046 -31.268,-101.5339 -63.6883,-137.0072 -5.456,-5.9698 -9.92,-11.7352 -9.92,-12.812 0,-1.0768 9.5253,-10.776 21.1671,-21.5537 14.923,-13.8151 21.4465,-18.7176 22.1137,-16.6188 2.6267,8.2621 35.7483,70.0509 43.1885,80.5686 16.0977,22.7564 37.4637,38.9758 58.4476,44.369 4.894,1.2578 12.2654,3.5811 16.3809,5.163 10.8333,4.1639 25.7078,3.5516 50.6812,-2.0858 37.3608,-8.4337 49.2543,-6.037 57.8169,11.651 7.1003,14.6675 5.6771,17.2558 -12.9176,23.4942 -32.6069,10.9394 -75.5716,11.4118 -118.6324,1.3043 -13.2651,-3.1136 -18.114,-3.5608 -19.8471,-1.8299 -2.6034,2.6 -2.7441,19.7059 -0.3926,47.7465 1.3191,15.7302 0.8667,22.5807 -2.73,41.3369 -10.933,57.0135 -32.2959,98.7392 -67.3395,131.5267 -13.823,12.9329 -18.8486,16.3446 -27.9307,18.9608 -6.0912,1.7547 -16.1923,5.7583 -22.447,8.8971 l -11.3721,5.7068 z M 1547.5808,1142.612 c -2.9866,-0.8993 -8.5685,-3.5748 -12.4045,-5.9456 -5.7226,-3.5368 -6.9743,-5.4996 -6.9743,-10.9371 v -6.6267 l 13.3968,-1.3115 c 33.4664,-3.2763 60.4891,-14.3278 87.1052,-35.6235 28.3943,-22.7185 52.9876,-55.4643 93.0071,-123.83821 12.8798,-22.00524 21.0044,-33.93304 23.1439,-33.97741 4.0119,-0.0832 13.125,10.35505 14.7729,16.92111 2.6556,10.58106 -12.5946,61.53721 -27.1503,90.71791 -28.1148,56.364 -75.3101,94.7214 -133.8185,108.7597 -16.2786,3.9059 -41.2642,4.8163 -51.0783,1.8613 z m -988.90911,-27.7781 -321.52285,-1.009 -6.46357,-4.6102 c -8.12989,-5.7988 -20.54445,-31.0161 -26.0658,-52.9469 -9.52983,-37.8521 -15.05028,-79.28621 -18.11376,-135.95365 -1.15075,-21.28618 -3.95028,-67.28219 -6.22118,-102.21337 -4.5082,-69.34535 -4.18391,-112.74716 1.32724,-177.63292 8.31669,-97.91681 23.43434,-156.64451 43.74995,-169.95592 5.58812,-3.6615 64.17883,-7.22651 254.33918,-15.47548 178.87894,-7.75961 372.13798,-1.37993 480.77529,15.87087 24.49994,3.89041 29.00227,7.33433 40.76531,31.18244 11.8899,24.10516 18.704,51.50397 20.4771,82.33484 1.9291,33.54469 1.14,41.48154 -4.2683,42.93239 -6.9147,1.85506 -29.03953,1.36869 -32.95032,-0.72433 -5.65307,-3.02547 -9.70918,-15.87599 -13.00299,-41.19569 -6.98777,-53.71612 -16.48057,-66.34511 -57.08027,-75.93826 -45.34904,-10.71536 -114.31429,-14.71601 -251.5478,-14.59219 -133.36847,0.12034 -236.37796,4.2245 -339.73493,13.53592 -25.54167,2.30104 -32.84127,3.67887 -40.76623,7.69478 -20.53593,10.40643 -35.87625,34.71765 -45.2755,71.75229 -7.20202,28.37722 -8.65787,47.00708 -10.79176,138.09791 -3.06795,130.96353 1.91692,194.38092 20.61105,262.21339 11.29708,40.99208 20.68517,54.90728 45.068,66.80068 27.1131,13.2253 16.49498,12.7541 285.54687,12.6717 233.19575,-0.071 310.20002,-1.532 340.46386,-6.4576 28.16333,-4.5837 44.30491,-33.7922 53.57209,-96.93967 4.32285,-29.45682 4.84085,-31.23658 10.5843,-36.36839 11.64814,-10.4077 26.91403,-9.15517 33.40923,2.74114 5.8364,10.68993 4.6159,45.25451 -2.859,80.96292 -9.6374,46.0385 -18.46934,77.204 -23.61036,83.3137 -10.03342,11.9242 -39.61532,19.0477 -84.08313,20.2479 -13.64488,0.3683 -169.49415,0.2156 -346.33172,-0.3393 z m 905.02741,-32.5775 c -12.9315,-3.1957 -20.7071,-7.3882 -30.0562,-16.2055 l -7.6183,-7.1851 4.6454,-3.7615 c 7.1915,-5.8235 22.7265,-9.724 50.8914,-12.7778 14.1907,-1.5386 29.8202,-4.1026 34.7324,-5.6978 53.9833,-17.5303 87.6454,-39.10594 131.2804,-84.14391 21.3537,-22.0402 65.3068,-76.55521 68.5614,-85.03661 0.6599,-1.71946 4.2316,-2.70634 9.7952,-2.70634 10.2386,0 10.2217,-1.18017 0.4138,28.7138 -22.1457,67.49938 -67.8416,123.36366 -133.1279,162.75156 -14.6804,8.8569 -17.4608,9.7071 -62.309,19.0548 -50.4643,10.5183 -52.213,10.7003 -67.2086,6.9944 z m -958.90319,-41.8298 c 1.91236,-4.9836 74.73665,-106.07576 90.93721,-126.23582 33.35362,-41.50555 82.08334,-92.60465 100.51367,-105.40101 13.7156,-9.52283 37.96314,-17.35094 61.65548,-19.90494 28.21601,-3.04163 260.19403,-2.93121 439.84573,0.20939 152.4117,2.66439 148.2337,2.3138 191.718,16.08801 13.4669,4.26578 24.8623,7.3789 25.3232,6.91801 0.4608,-0.46088 -1.5973,-4.03086 -4.574,-7.93331 -7.0022,-9.18051 -22.5584,-19.39303 -38.8254,-25.48845 -27.1698,-10.18088 -36.3795,-10.81103 -191.5042,-13.10371 -139.8818,-2.06742 -202.80486,-3.55175 -370.14823,-8.73181 l -78.39601,-2.42671 -11.63756,-5.80381 c -20.49869,-10.22293 -36.88224,-28.24881 -117.71382,-129.51383 -42.92787,-53.77963 -78.0507,-98.26065 -78.0507,-98.84671 0,-1.99819 44.64552,1.64378 47.47881,3.8731 1.55256,1.22162 22.40608,28.42024 46.34121,60.44137 51.54811,68.96272 66.9403,87.63223 90.65178,109.95342 23.48156,22.10471 31.7215,27.54613 46.38701,30.6326 28.26053,5.94764 105.10045,7.33746 276.89791,5.00832 199.17,-2.70024 265.929,-1.26446 297.0428,6.38852 24.8452,6.1111 55.354,16.70543 74.4206,25.84297 8.0473,3.85655 14.979,6.66431 15.4039,6.23944 1.852,-1.852 -5.9197,-12.92298 -15.0992,-21.5095 -28.7931,-26.93273 -71.6744,-43.71132 -125.3354,-49.04108 -21.4986,-2.13531 -144.854,-3.12031 -225.2645,-1.79876 -25.1065,0.41262 -75.12124,0.72951 -111.14369,0.70416 -58.8359,-0.0413 -67.98157,-0.49353 -89.9468,-4.44692 -29.09385,-5.23647 -61.62394,-15.67795 -80.76513,-25.92395 -11.47761,-6.14379 -14.62135,-8.9495 -18.25135,-16.28881 -10.44239,-21.11297 -11.53971,-78.59727 -2.37614,-124.47682 l 2.08116,-10.41982 h 15.73695 c 8.65532,0 15.87877,0.22329 16.0521,0.49618 0.17343,0.2729 0.8798,22.37779 1.56991,49.12197 1.37347,53.22819 2.03472,56.53514 14.03897,70.2073 8.75189,9.96794 14.26102,12.48219 32.81459,14.97582 39.29644,5.28153 69.39691,6.14723 212.55313,6.11318 88.3458,-0.0211 161.3221,0.82467 175.6467,2.03551 67.1871,5.67923 120.9529,19.09988 167.7619,41.87558 22.6969,11.04352 25.2258,12.87983 41.4127,30.07074 30.4539,32.34289 59.9432,75.56668 76.8097,112.58342 l 7.6868,16.87018 -0.7186,-12.09378 c -1.6028,-26.97182 -41.3221,-92.72501 -103.4933,-171.32741 -11.5837,-14.64534 -21.0614,-27.32175 -21.0614,-28.1698 0,-2.85489 8.7788,-7.72117 13.9289,-7.72117 9.0659,0 32.445,15.78147 43.07,29.07322 54.2127,67.81976 88.0805,123.05567 103.8671,169.39932 3.5325,10.37019 8.5282,21.06898 11.1014,23.77506 l 4.6786,4.92018 6.0038,-6.00371 6.0036,-6.00374 -5.1345,-17.77134 c -11.4663,-39.68645 -23.9739,-64.22666 -72.1898,-141.63831 -36.7887,-59.06531 -37.0185,-59.72015 -20.9481,-59.72015 6.9565,0 11.1957,1.81943 23.0773,9.90438 8.0055,5.44743 15.9725,11.02947 17.7044,12.40453 5.0735,4.02815 44.8253,71.43438 58.6152,99.39261 6.9689,14.12877 15.8735,36.06581 19.788,48.74896 10.3766,33.61916 10.411,33.65682 21.7054,23.74014 7.2273,-6.34568 7.3492,-6.68948 6.1943,-17.46955 -2.6936,-25.14391 -17.1429,-70.27033 -34.2766,-107.0494 -4.7781,-10.25674 -8.6875,-19.84375 -8.6875,-21.30448 0,-1.46073 2.586,-5.55019 5.7467,-9.0877 5.5329,-6.19229 5.9579,-6.32281 11.4121,-3.50458 9.2274,4.76778 25.0528,22.06773 31.799,34.76186 3.4577,6.50615 11.4015,29.02204 17.653,50.0353 6.2514,21.01329 12.08,38.20597 12.9521,38.20597 0.8723,0 4.5391,-3.70741 8.1484,-8.23871 16.6556,-20.91019 22.6951,-23.82112 31.0253,-14.95388 5.3871,5.73435 5.4792,13.23406 0.346,28.15441 -5.3043,15.41699 -5.0982,19.68819 1.0857,22.50576 2.7804,1.26684 6.3528,2.30332 7.9388,2.30332 3.8996,0 3.6268,5.15764 -0.9814,18.55145 -13.6317,39.6215 -43.026,74.57906 -89.4163,106.3392 -44.0678,30.17012 -101.2433,49.02808 -155.4665,51.27692 -26.8967,1.1154 -42.5456,-2.00655 -55.905,-11.15341 -10.2647,-7.02796 -10.6326,-13.1939 -1.1677,-19.57237 10.3401,-6.96817 24.0067,-10.22332 52.5393,-12.51383 88.6091,-7.11327 155.6636,-39.31267 204.3379,-98.12265 7.6392,-9.22984 7.8115,-9.68386 2.3027,-6.06922 -60.4434,39.66049 -126.3007,68.61618 -176.1969,77.46905 -14.9692,2.65591 -26.0842,3.21178 -48.6254,2.43179 -30.9612,-1.07134 -49.4444,-4.78983 -70.8386,-14.25148 -11.831,-5.23221 -13.3402,-7.94317 -12.4728,-22.40447 l 0.5039,-8.40039 -162.7462,-1.00081 c -89.5104,-0.55044 -183.6971,-0.99779 -209.30372,-0.99407 -59.21968,0.008 -116.8115,3.81763 -165.8063,10.96638 -23.12552,3.37419 -27.17396,6.38589 -34.90618,25.9673 -5.20941,13.19253 -6.23093,38.74616 -3.02082,75.56636 1.99879,22.92632 -0.43472,36.42642 -7.45222,41.34172 -2.55631,1.7905 -8.89423,2.8923 -16.6375,2.8923 -14.86559,0 -14.8599,0.01 -18.15939,-26.8957 -4.83261,-39.40557 -1.85061,-82.24005 7.72955,-111.02864 3.8415,-11.54377 5.48612,-13.77904 15.31831,-20.81979 20.72415,-14.84034 55.34596,-24.75568 103.74636,-29.71188 11.86033,-1.2145 61.38812,-2.09051 115.11313,-2.03603 51.86298,0.0526 144.75748,-0.48758 206.43218,-1.20038 71.8021,-0.82985 132.0622,-0.49461 167.5343,0.93205 30.4689,1.22545 55.7829,1.84338 56.253,1.37321 1.9754,-1.97544 -21.2285,-13.1234 -35.1064,-16.86632 -27.3248,-7.36964 -39.8493,-8.15258 -159.9025,-9.99594 -65.4954,-1.00563 -171.7766,-2.87614 -236.18038,-4.15668 -177.91262,-3.53745 -194.14055,-3.48277 -209.38679,0.70567 -26.93785,7.40032 -50.49812,18.73791 -70.45719,33.90513 -20.16532,15.32394 -43.4167,41.4349 -98.72961,110.87195 l -59.68328,74.92335 h -20.73751 c -17.50349,0 -20.56155,-0.4585 -19.60913,-2.9405 z"
     id="path2161" />
</svg>
